# xmcd
#
# Track frame offsets:
#	183
#	22498
#	47095
#	63770
#	93520
#	109353
#	133175
#	157703
#	174055
#	192528
#	223420
#	239400
#	265033
#	295985
#
# Disc length: 4179 seconds
#
# Revision: 8
# Processed by: cddbd v1.5.2PL0 Copyright (c) Steve Scherf et al.
# Submitted via: EasyCDDAExtractor 2010.6.0.0
#
DISCID=d210510e
DTITLE=Various Artist - Dance Classics Vol. 11
DYEAR=1991
DGENRE=Dance
TTITLE0=Donna Summer - Last Dance
TTITLE1=The Weather Girls - It's Raining Men (12" Version)
TTITLE2=Sister Sledge - All American Girls
TTITLE3=Chas Jankel - Glad To Know You
TTITLE4=Johnny Mathis - Gone, Gone, Gone
TTITLE5=Georgio Moroder - Chase
TTITLE6=The Jacksons - Show You The Way To Go
TTITLE7=Evelyn Thomas - High Energy
TTITLE8=Yarbrough and Peoples - Don't Stop The Music
TTITLE9=Oliver Cheatham - Get Down Saturday Night (12" Version)
TTITLE10=The Spinners - The Rubberband Man
TTITLE11=Cheryl Lynn - Shake It Up Tonight
TTITLE12=Rocker's Revenge - Walking On Sunshine (12" Version)
TTITLE13=Patti Labelle - Release
EXTD=
EXTT0=
EXTT1=
EXTT2=
EXTT3=
EXTT4=
EXTT5=
EXTT6=
EXTT7=
EXTT8=
EXTT9=
EXTT10=
EXTT11=
EXTT12=
EXTT13=
PLAYORDER=
